<svg xmlns="http://www.w3.org/2000/svg" version="1.1" xmlns:xlink="http://www.w3.org/1999/xlink" xmlns:svgjs="http://svgjs.dev/svgjs" viewBox="0 0 800 800"><defs><linearGradient x1="50%" y1="0%" x2="50%" y2="100%" id="ssscribble-grad"><stop stop-color="#bc6c25" stop-opacity="1" offset="0%"></stop><stop stop-color="#283618" stop-opacity="1" offset="100%"></stop></linearGradient></defs><g fill="none" stroke-width="1.5" stroke="url(#ssscribble-grad)" stroke-linecap="round"><path d="M1028.08 187.68C1095.36 220.54 1089.34 244.82 1016.75 269.01 900.8 304 774.16 359 669.08 449.22 605.42 562.58 591.68 703.7 619.75 839.73 681.8 917.07 753.16 907.16 815.69 796.37 867.06 654.08 891.18 559.51 888.82 606.3 866.55 787.85 825.91 993.63 775.79 1059.16 717.2 928.58 658.92 717.22 606.62 642.89 552.95 800.27 508.5 1035.91 475.64 1089.68 432.92 788.65 404.34 954.04 405.23 1042.99 398.4 858.01 384.93 649.92 356.55 568.74 308.26 649.18 236.97 805.9 142.53 921.83 36.93 940.22 -73.39 849.89 -169.65 707.36 -231.94 550.88 -247.66 433.78 -208.09 364.78 -127.1 333.27 -19.17 327.44 84.1 324.71 144 330.13 143.36 319.87 76.08 287.02 -40.35 254.16 -162.14 200.26 -250.81 132.86 -286.29 73.62 -255.43 19.66 -171.47 -5.78 -55.02 6.25 65.78 69.23 167.04 175.05 236.9 266.95 268.14 310.13 266.99 248.7 237.13 89.71 195.46 -105.97 154.9 -220.65 98.37 -84.42 71.46 43.46 95.61 -264.36 117.91 -265.26 146.5 -54.85 179.36 137.66 212.22 83.97 247.79 -144.99 287.47 -289.74 329.72 -202.78 380.63 27.27 443.05 181.97 511.79 140.57 594.08 -35.73 687.17 -183.07 778.37 -195.68 867.22 -62.17 940.15 123.17 984.37 277.05 992.09 334.16 956.45 307.49 889.41 222.12 798.06 135.11 705.71 78.69 645.83 45.4 633.68 50.18 681.84 77.15 783.19 114.92 911.64 154.81 1028.08 187.68Q1028.08 187.68 1028.08 187.68" opacity="0.36"></path><path d="M994.08 243.58C1058.77 274.09 1060.36 322.28 1002.75 390.23 902.79 462.24 785.17 557.39 677.04 668.24 576.08 803.49 614.15 773.4 697.6 591.47 756.36 516.96 799.25 544.9 822.23 694.36 831.7 888.7 822.17 1017.75 798.97 981.63 767.06 810.34 729.17 637 690.73 625.19 650.13 801.71 613.31 1014.42 582.8 1055.68 552.29 881.4 529.52 667.94 512.57 614.48 493.47 759.06 475.85 956.27 454.88 1034.25 425.2 936.25 384.48 737.12 327.98 574.08 257.97 530.76 171.28 611.2 72.53 740.97 -24.39 857.75 -113.6 895.66 -179.16 854.76 -209.04 753.09 -195.72 629.08 -137.47 515.79 -51.71 410.75 48.53 335.13 136.71 282.94 182.55 239.23 174.77 205.2 110.08 174.69 2.84 144.17 -111.12 118.62 -200.3 104.78 -247.76 99.41 -238.42 119.52 -178.92 171.67 -83.15 232.08 28.29 305.84 134.18 360.5 223.19 354.39 283.33 272.7 314.3 115.94 317.64 -53.83 302.29 -170.46 278.68 -158.95 245.36 -27.7 217.09 144.06 199.09 219.72 180.15 12.14 206.71 -106.27 247.45 171.66 277.97 130.47 317.1 -76.03 364.79 -240.81 413.82 -217.27 473.4 -26.59 543.17 167.08 614.06 225.6 692.58 123.95 772.93 -38.61 843.57 -156.32 902.72 -148.11 939.38 -33.63 948.4 136.18 924.43 284.2 867.2 371.5 793.08 394.82 709 368.01 635.59 324.18 598.46 266.21 606.49 226.57 665.73 212.09 766.68 201.68 886.84 213.07 994.08 243.58Q994.08 243.58 994.08 243.58" opacity="0.56"></path><path d="M960.08 490.94C1021.81 519.11 1029.92 566.61 986.29 628.12 902.87 684.53 797.45 742.68 691.98 785.48 601.67 799.86 540.28 774.25 511.38 700.92 514.99 609.37 542.32 514.48 582.15 465.13 633.03 503.25 679.07 631.81 713.67 812.29 742.65 953.22 756.03 981.82 755.3 868.44 748.16 693.31 731.13 575.22 707.91 619.03 682.64 804.07 655 991.78 626.83 1021.68 598.66 865.34 571.31 660.14 543.46 572.86 513.56 662.92 479.34 846.01 437.68 979.05 389.59 976.51 329.82 839.75 257.44 659.15 179.42 520.86 92.95 485.98 5.15 541.68 -71.58 654.88 -132.31 760.42 -165.25 820.89 -165.67 833.11 -129.55 793.59 -59.88 726.29 24.94 637.99 114.32 553.31 186.87 484.5 219.63 415.6 205.82 366.33 144.08 338.16 45.96 309.99 -59.63 304.25 -147.39 320.02 -203.66 335.71 -212.94 369.15 -177.16 408.64 -105.05 427.14 -10.15 420.29 90.24 364.68 186.56 260.81 265.31 114.84 321.85 -35.27 356.52 -127.92 371.11 -126.45 372.3 -17.51 360.29 133.75 345.55 245.27 334.18 227.2 316.86 -26.01 331.96 -50.44 368.23 205.66 396.4 175.83 435.19 -6.14 483.36 -180.35 531.53 -213.33 588.58 -79.23 651.8 116.54 711.99 250.59 773.11 247.27 828.53 135.67 870.76 -15.47 896.61 -110.65 898.85 -111.86 879.23 -25.59 833.87 109.72 766.89 244.68 695.81 361.42 626.17 433.42 574.7 467.86 559.57 473.87 584.88 466.95 652.02 463.67 750.65 455.27 861.96 462.77 960.08 490.94Q960.08 490.94 960.08 490.94" opacity="0.19"></path><path d="M926.08 626.96C984.49 652.78 997.99 676.78 967.14 693.78 900.21 704.34 809.32 696.65 711.44 662.94 618.6 616.84 544.05 548.08 493.91 472.5 469.85 425.75 469.29 421.02 485.32 483.69 517.02 606.16 552.44 764.06 584.6 899.58 618.1 949.36 641.67 887.33 653.76 736.29 662.88 589.95 661.24 534.66 650.2 622.91 637.82 806.49 618.33 967.95 592.52 987.68 566.7 848.91 535.77 656.05 499.45 543.84 461.79 579.49 416.47 726.93 362.6 882.27 305.77 959.66 239.68 912.75 166.38 777.03 94.44 611.03 21.95 487.23 -43.58 437.61 -93.45 463.04 -123.5 536.23 -126.33 618.75 -103.08 699.24 -51.68 746.5 22.22 759.63 101.18 750.17 177.37 720.18 234.33 683.34 255.22 640.39 236.49 603.13 178.08 577.31 88.99 551.49 -7.77 538.32 -92.34 532.59 -154.28 520.73 -178.74 503.76 -164.61 468.49 -117.02 410.62 -43.44 320.85 43.15 200.58 135.39 78.26 220.8 -32 292.54 -91.29 350.55 -75.53 391.39 17.62 417.88 156.74 431.8 265.59 438.07 289.38 441.86 193.09 441.46 -62.23 466.14 7.04 499.94 239.65 525.76 219.99 560.22 63.78 601.52 -109.84 641.86 -188.17 686.91 -118.21 733.02 47.04 773.97 217.02 810.22 302.22 836.09 279.34 849.4 170.71 845.63 43.42 821.46 -45.21 783.56 -74.04 728.76 -32.25 663.41 54.29 603.69 169.66 553.27 280.93 524.6 371.78 529.4 450.24 568.55 504.89 640.45 543.03 734.98 574.73 836.99 601.14 926.08 626.96Q926.08 626.96 926.08 626.96" opacity="0.48"></path><path d="M892.11 485.14C946.83 508.61 964.56 514 945.08 501.61 894.04 488.4 819.04 457.99 732.65 416.24 643.83 384.63 564.03 360.72 500.26 363.34 454.64 405.63 428.89 492.67 419.9 619.54 426.87 752.14 442.66 863.06 461.42 908.33 486.06 868.35 506.77 751.62 520.38 605.85 534.26 510.78 539.17 516.09 534.49 634.78 529.39 808.01 515.22 942.86 491.74 953.69 468.27 832 436.61 654.92 397.45 527.2 357.86 513.7 310.25 611.85 255.7 757.32 201.41 882.01 142.05 921.14 81.22 867.2 26.3 743.49 -23.19 599.65 -60.92 480.71 -82.69 405.66 -84.77 386.64 -63.59 408.17 -24.27 461.53 34.47 519.8 106.09 566.55 175.27 610.31 236.91 633.08 278.89 636.7 289.32 636.24 266.83 622.88 212.11 599.41 131.95 575.93 44.35 543.46 -35.45 499.66 -100.01 451.77 -135.87 386.3 -140.24 301.86 -116.02 214.44 -65.92 117.51 1.18 27.98 79.96 -29.72 160.54 -44.4 235.69 -0.11 305.33 88.05 363.23 204.07 409.05 303.34 445.75 332.83 473.14 272.65 494.37 130.76 510.45 -31.91 524.99 -143.42 540.82 -138.98 555.33 -20.32 573.72 152 597.2 273.69 620.67 262.86 648.1 132.76 677.86 -31.4 706.3 -141.03 734.45 -132.98 759.06 -20.71 778.51 142.26 789.78 280.04 789.25 344.46 779.61 323.63 755.41 240.54 716.54 138.7 672.15 42.6 619.4 -10.73 565.06 -16.85 522.39 16.7 493.33 79.26 486.31 151.55 507.87 233.97 557.09 307.09 630.7 364.56 719.56 421.22 811.92 461.66 892.08 485.13Q892.11 485.14 892.11 485.14" opacity="0.34"></path><path d="M857.78 238.97C908.61 260.09 929.58 269.35 920.08 270.26 883.94 274.94 825.37 279.19 753.25 292.24 673.84 321.35 596.18 372.62 526.99 452.03 468.07 548.34 423.57 660.68 393.19 768.81 375.92 842.84 369.12 866.49 368.86 823.11 376.11 727.71 384.33 603.08 390.14 497.27 398.32 462.59 401 517.99 396.45 651.99 392.23 807.62 379.96 916.32 358.83 919.58 337.71 814.37 308.73 655.78 273.11 521.88 237.82 468.62 196.71 512.86 151.92 623.24 109.51 756.2 66.5 851.86 26.69 880.45 -5.6 839.42 -29.13 744.09 -39.54 627.31 -36.85 508.06 -17.4 415.15 19.51 356.3 66.71 327.96 125.42 326.06 189.35 337.16 269.26 371.46 309.24 400.41 245.78 377.27 174.35 356.16 96.13 318.94 22.48 268.09 -41.76 218.62 -85.01 159.57 -103.79 98.97 -99.9 51.25 -72.68 18.34 -27.61 14.11 31.54 40.39 98.18 102.97 165.93 194.52 234.72 283.62 297.79 353.91 352.84 372.97 403.29 322.41 445.45 207.82 480.28 59.37 511.44 -66.49 537.94 -122.78 561.43 -77.71 583.76 48 605.2 202.31 626.32 307.55 647.45 304.35 667.26 199.95 684.76 52.48 701.12 -73.38 713.04 -116.79 718.49 -66.64 720.27 54.63 712.9 198.21 695.01 315.62 672.53 381 639.78 382.4 598.68 336.07 558.62 255.63 517.03 173.61 479.87 109.86 456.79 63 448.52 46.53 460.1 54.02 494.38 77.58 549.64 111.76 622.05 146.92 703.85 185.85 786.35 217.84 857.78 238.97Q857.78 238.97 857.78 238.97" opacity="0.71"></path><path d="M824.1 190.03C870.43 208.81 893.19 233.25 891.68 264.99 868.61 299.68 825.8 346.65 769.22 408.38 703.04 475.58 633.74 556.59 567 644.81 504.02 722.59 449.71 786.45 405.46 819.33 369.88 811.94 343.73 759.62 325.12 667.83 309.15 519.86 292.2 492.72 280.74 672.11 272.64 804.83 259.62 888.65 240.84 885.66 222.06 796.19 198.42 658 171.1 526.6 144.49 445.74 115.64 440.15 86.74 501.43 60.86 608.45 37.94 718.9 20.96 799.93 10.63 838.43 9.82 823.47 20.79 766.91 40.43 679.39 72.48 582.24 115.91 491.99 163.09 408.49 215.55 344.98 267.97 300.31 310.79 267.16 342.91 245.55 358.73 229.14 353 216.26 326.43 201.84 280.1 183.06 217.41 164.28 148.77 142.03 82.34 119.51 20.81 100.5 -26.2 87.95 -55.26 88.56 -67.77 100.69 -60.98 133.28 -37.76 187.83 -0.95 249.14 46.09 319.33 98.5 382.24 155.97 414.19 212.93 406.89 266.29 348.83 319.1 248.25 366.29 120.96 407.1 0.18 446.26 -74.86 479.76 -79.95 507.86 -6.34 535.29 117.81 558.45 252.19 577.23 341.66 596.01 344.64 609.52 264.63 617.5 139.16 625.15 -27.63 602.47 40.78 570.46 216.73 546.05 328.07 516.05 402.65 483.18 434.65 455.39 426.39 430.6 389.48 413.33 340.64 409.66 281.37 419.7 231.28 445.97 196.62 488.79 167.44 546.49 154.63 615.26 155.34 688.93 159.02 761.38 171.24 824.07 190.02Q824.1 190.03 824.1 190.03" opacity="0.28"></path><path d="M790.07 398.05C857.35 430.92 848.9 513.94 779.26 627.54 670.53 718.2 552.01 772.99 450.58 722.42 365.74 590.69 307.26 432.23 267.57 401.85 237.89 564.78 210.25 797.95 177.39 851.65 127.04 550.58 68.63 649.37 113.99 793.19 172.36 733.21 256.02 601.69 340.67 480.75 386.22 361.82 381.35 287.08 314.07 254.21 197.63 221.35 82.02 233.49 4.14 295.46 -30.58 359.46 -8.63 439.69 50.64 456.61 135.45 355.1 224.97 149.49 300.88 -28.62 377.09 -20.65 434.13 183.13 466.99 375.65 475.36 163.21 377.47 477.72 442.74 442.25 544.7 385.61 673.63 365.19 790.07 398.05Q790.07 398.05 790.07 398.05" opacity="0.87"></path><path d="M756.11 608.43C817.82 636.6 823.42 676.99 780.7 704 703.18 702.84 607.89 645.23 516.3 525.56 427.61 413.21 355.95 351.64 302.94 421.5 255.7 602.46 219 787.8 190.83 817.69 162.67 661.35 145.7 457.35 144.13 361.36 148.33 416.62 176.02 555.75 227.8 673.51 282.48 740.65 347.89 726.86 404.76 673.8 426.83 596.36 409.82 532.06 348.11 503.9 250 475.73 149.83 486.36 73.07 514.99 21.41 519.24 11.38 489.07 34.49 385.02 80.61 230.35 139.9 61.35 196.52 -14.57 257.19 60.73 305.39 253.29 333.55 409.66 361.73 379.83 367.2 205.92 355.34 45.58 347.54 -3.65 332.2 87.78 323 237.05 336.79 393.64 376.69 495.21 448.99 545.18 546.38 566.98 657.97 580.26 756.08 608.42Q756.11 608.43 756.11 608.43" opacity="0.90"></path><path d="M722.11 563.72C776.83 587.19 792.12 581.67 771.79 542.91 724.37 497.45 657.74 420.4 586.93 340.78 511.29 310.47 443.65 349.11 390.29 475.23 338.64 639.76 299.97 772.87 276.5 783.69 253.03 662 246.98 486.6 257.94 359.16 270.64 324.93 301.64 380.25 346.52 469.95 386.56 573.46 428.29 638.97 458.51 661.13 461.63 666.26 436.83 649.79 382.11 626.32 301.95 602.85 218.93 574.6 149.43 528.79 91.77 465.95 61.62 363.82 57.14 229.55 68.78 109.09 96.09 28.86 128.72 45.86 166.02 156.08 199.62 321.95 223.09 443.66 246.57 432.89 257.69 309.32 261.07 161.97 269.11 53.04 278.43 39.28 297.55 100.36 332.79 210.74 387.83 324.42 462.69 410.57 549.39 490 641.92 540.24 722.08 563.71Q722.11 563.72 722.11 563.72" opacity="1.00"></path><path d="M687.96 318.54C744.64 332.74 710.43 272.85 646.01 272.37 593.7 320.29 542.84 415.24 500.17 545.53 456.82 669.61 423.8 752.57 405.02 749.64 386.24 660.18 383.48 523.57 394.3 397.3 404.42 310.27 425.97 282.43 453.67 298.97 474.42 350.47 492.63 405.45 500.73 442.18 490.54 479.51 462.34 490.42 415.96 471.64 353.24 452.86 288.25 406.18 230.64 336.31 176.6 267.04 138.83 182.75 118.7 106.63 107.16 65.48 109.58 73.41 121.32 146.68 136.35 259.18 154.97 388.18 173.75 477.64 192.53 480.57 209.69 405.22 227.2 294.91 248 178.38 274.89 103.34 311.04 80.03 355.78 96.41 413.46 143.15 481.27 194.73 552.64 254.84 625.24 299.76 687.96 318.54Q687.96 318.54 687.96 318.54" opacity="0.29"></path><path d="M654.11 173.11C715.82 201.27 716.33 241.38 678.56 349.21 619.33 505.17 559.64 685.8 531.48 715.69 503.31 559.33 512 357.95 534.31 255.96 535.16 238.62 511.82 257.46 450.11 229.29 351.99 201.12 262.71 131.29 212.91 111.71 175.06 176.79 174.34 355.33 202.51 511.69 230.68 481.8 282.39 324.01 357.16 204.96 443.87 134.05 555.99 144.94 654.11 173.11Q654.11 173.11 654.11 173.11" opacity="0.87"></path><path d="M620.08 305.36C691.42 342.92 650.28 599.89 612.73 681.68 575.17 452.46 555.42 233.41 484.08 195.85 349.1 158.3 261.9 316.46 299.46 545.68 337.01 463.89 485.1 267.81 620.08 305.36Q620.08 305.36 620.08 305.36" opacity="0.84"></path></g></svg>